<svg width="28" height="27" viewBox="0 0 28 27" fill="none" xmlns="http://www.w3.org/2000/svg">
<path d="M20.7834 0H7.13888C3.36934 0 0.302734 3.06751 0.302734 6.83816V19.3245C0.302734 23.0952 3.36934 26.1627 7.13888 26.1627H20.7834C24.5529 26.1627 27.6195 23.0952 27.6195 19.3245V6.83816C27.6195 3.06751 24.5529 0 20.7834 0ZM2.71431 6.83816C2.71431 4.39805 4.69949 2.41226 7.13888 2.41226H20.7834C23.2227 2.41226 25.2079 4.39805 25.2079 6.83816V19.3245C25.2079 21.7646 23.2227 23.7504 20.7834 23.7504H7.13888C4.69949 23.7504 2.71431 21.7646 2.71431 19.3245V6.83816Z" fill="#383D38"/>
<path d="M13.9613 19.44C17.4667 19.44 20.3201 16.5873 20.3201 13.0794C20.3201 9.57144 17.4682 6.71875 13.9613 6.71875C10.4544 6.71875 7.60254 9.57144 7.60254 13.0794C7.60254 16.5873 10.4544 19.44 13.9613 19.44ZM13.9613 9.13256C16.1381 9.13256 17.9085 10.9035 17.9085 13.0809C17.9085 15.2583 16.1381 17.0293 13.9613 17.0293C11.7846 17.0293 10.0141 15.2583 10.0141 13.0809C10.0141 10.9035 11.7846 9.13256 13.9613 9.13256Z" fill="#383D38"/>
<path d="M20.9086 7.7469C21.8525 7.7469 22.6219 6.97889 22.6219 6.03314C22.6219 5.08739 21.8541 4.31934 20.9086 4.31934C19.9631 4.31934 19.1953 5.08739 19.1953 6.03314C19.1953 6.97889 19.9631 7.7469 20.9086 7.7469Z" fill="#383D38"/>
</svg>
