<svg width="28" height="24" viewBox="0 0 28 24" fill="none" xmlns="http://www.w3.org/2000/svg">
<path d="M1.49553 11.0979C1.55733 11.067 1.61915 11.0376 1.6794 11.0098C2.72684 10.5246 3.78818 10.0703 4.84797 9.61592C4.90513 9.61592 5.00089 9.54946 5.05496 9.52782C5.13684 9.49228 5.21874 9.45829 5.30061 9.42275C5.45819 9.35476 5.61578 9.2883 5.77181 9.2203C6.08697 9.08586 6.40056 8.95143 6.71572 8.81699C7.34449 8.5481 7.97326 8.27921 8.60203 8.00877C9.85957 7.47099 11.1187 6.93164 12.3762 6.39386C13.6338 5.85608 14.8928 5.31676 16.1504 4.77898C17.4079 4.2412 18.667 3.70188 19.9245 3.1641C21.1821 2.62632 22.4412 2.087 23.6987 1.54922C23.9784 1.42868 24.2812 1.24942 24.5809 1.19688C24.8327 1.15206 25.0783 1.06554 25.3317 1.01763C25.8121 0.926457 26.342 0.889362 26.8024 1.08871C26.9615 1.15825 27.1083 1.25559 27.2303 1.37767C27.8143 1.95563 27.7324 2.90449 27.6088 3.71735C26.7483 9.38258 25.8878 15.0494 25.0258 20.7146C24.9084 21.4919 24.7477 22.3449 24.1344 22.8364C23.6153 23.2521 22.8768 23.2984 22.2357 23.1222C21.5946 22.9445 21.0291 22.5721 20.4745 22.2058C18.1742 20.6821 15.8723 19.1584 13.572 17.6347C13.0251 17.2731 12.4164 16.8002 12.4226 16.1435C12.4257 15.7479 12.662 15.3955 12.903 15.0818C14.9021 12.4732 17.7864 10.6807 19.9323 8.19266C20.2351 7.84187 20.473 7.20829 20.0574 7.00585C19.8102 6.88531 19.526 7.04909 19.3004 7.20516C16.464 9.17548 13.6291 11.1473 10.7927 13.1177C9.86732 13.7605 8.89713 14.4219 7.78172 14.5796C6.78372 14.7217 5.77955 14.4436 4.81399 14.1592C4.00447 13.9212 3.19646 13.6771 2.39157 13.4252C1.96364 13.2923 1.5218 13.1486 1.19119 12.8472C0.860584 12.5459 0.670588 12.039 0.869879 11.6372C0.995015 11.3854 1.23757 11.2262 1.49247 11.0964L1.49553 11.0979Z" fill="#383D38"/>
</svg>
