<svg width="29" height="20" viewBox="0 0 29 20" fill="none" xmlns="http://www.w3.org/2000/svg">
<path d="M28.5487 5.5249C28.3757 3.85438 28.0034 2.00769 26.633 1.03721C25.5717 0.28463 24.1767 0.256807 22.8743 0.258353C20.1213 0.259898 17.3668 0.262995 14.6138 0.26454C11.9658 0.267631 9.31789 0.269184 6.66995 0.272275C5.56381 0.27382 4.48856 0.187288 3.46121 0.666345C2.57908 1.07741 1.88851 1.85933 1.47294 2.72936C0.896692 3.93937 0.776196 5.3101 0.706676 6.64837C0.57845 9.08538 0.592354 11.5286 0.745298 13.9641C0.858075 15.7412 1.14388 17.7053 2.51728 18.838C3.73466 19.841 5.45257 19.8904 7.03145 19.892C12.0431 19.8966 17.0563 19.9013 22.0694 19.9044C22.7121 19.9059 23.3826 19.8935 24.0376 19.8224C25.3261 19.6834 26.5542 19.314 27.3823 18.359C28.2181 17.3963 28.4328 16.0564 28.5595 14.7877C28.8685 11.7094 28.8654 8.60169 28.5487 5.5249ZM11.7156 14.3967V5.76599L19.1867 10.0806L11.7156 14.3967Z" fill="#383D38"/>
</svg>
