<svg width="196" height="56" viewBox="0 0 196 56" fill="none" xmlns="http://www.w3.org/2000/svg">
<path d="M54.8256 55.04C51.6256 55.04 48.4256 54.5867 45.2256 53.68C42.0256 52.8267 38.8523 51.7333 35.7056 50.4C32.559 49.12 29.4656 47.8667 26.4256 46.64C24.1323 47.8133 21.6523 48.8533 18.9856 49.76C16.319 50.72 13.5456 51.2533 10.6656 51.36C7.14563 51.36 4.55896 50.72 2.90562 49.44C1.25229 48.16 0.425625 46.64 0.425625 44.88C0.425625 43.12 1.25229 41.4933 2.90562 40C4.55896 38.5067 6.85229 37.76 9.78563 37.76C12.3456 37.76 15.0123 38.3467 17.7856 39.52C20.559 40.6933 23.439 42.0533 26.4256 43.6C28.4523 41.8933 30.4523 39.9733 32.4256 37.84C34.4523 35.6533 36.4523 33.3333 38.4256 30.88C36.9856 30.7733 35.439 30.5067 33.7856 30.08C32.1856 29.6 30.6656 28.9867 29.2256 28.24C27.7856 27.44 26.5856 26.48 25.6256 25.36C24.719 24.1867 24.2656 22.8267 24.2656 21.28C24.2656 19.52 24.7723 18.0267 25.7856 16.8C26.799 15.52 28.1056 14.48 29.7056 13.68C31.359 12.88 33.119 12.2933 34.9856 11.92C36.9056 11.4933 38.7456 11.28 40.5056 11.28C42.5856 11.28 44.559 11.4667 46.4256 11.84C48.2923 12.16 49.999 12.6133 51.5456 13.2C53.4656 10.8533 55.4923 8.69333 57.6256 6.72C59.759 4.69333 61.9723 3.06667 64.2656 1.84C66.6123 0.613331 69.039 -1.90735e-06 71.5456 -1.90735e-06C73.6256 -1.90735e-06 75.1456 0.559997 76.1056 1.68C77.119 2.74666 77.6256 4.13333 77.6256 5.84C77.6256 7.97333 76.879 10.3733 75.3856 13.04C73.9456 15.7067 71.7856 18.32 68.9056 20.88C66.0256 23.44 62.479 25.6267 58.2656 27.44C54.1056 29.2533 49.3323 30.3733 43.9456 30.8C41.8123 33.5733 39.519 36.1867 37.0656 38.64C34.6656 41.0933 31.999 43.2267 29.0656 45.04C31.679 46.3733 34.319 47.68 36.9856 48.96C39.7056 50.2933 42.479 51.36 45.3056 52.16C48.1856 53.0133 51.119 53.44 54.1056 53.44C55.8123 53.44 57.519 53.2 59.2256 52.72C60.9323 52.2933 62.3723 51.4933 63.5456 50.32C64.719 49.2 65.3056 47.6533 65.3056 45.68C65.3056 43.8133 64.5856 42.48 63.1456 41.68C61.759 40.88 60.0523 40.48 58.0256 40.48C56.639 40.48 55.119 40.72 53.4656 41.2C51.8656 41.6267 50.479 42.2667 49.3056 43.12C49.0923 43.28 48.9056 43.36 48.7456 43.36C48.5856 43.36 48.5056 43.3067 48.5056 43.2C48.5056 42.6667 49.0923 42.1067 50.2656 41.52C51.439 40.88 52.8256 40.3467 54.4256 39.92C56.079 39.44 57.519 39.2 58.7456 39.2C59.919 39.2 61.279 39.4133 62.8256 39.84C64.3723 40.2133 65.7323 40.88 66.9056 41.84C68.079 42.8 68.6656 44.1333 68.6656 45.84C68.6656 47.9733 67.9456 49.7067 66.5056 51.04C65.0656 52.4267 63.279 53.44 61.1456 54.08C59.0656 54.72 56.959 55.04 54.8256 55.04ZM45.0656 29.36C49.8656 28.8267 54.1323 27.6267 57.8656 25.76C61.6523 23.8933 64.879 21.7333 67.5456 19.28C70.2123 16.7733 72.239 14.2667 73.6256 11.76C75.0123 9.25333 75.7056 7.09333 75.7056 5.28C75.7056 4.05333 75.359 3.06666 74.6656 2.32C74.0256 1.57333 73.0123 1.2 71.6256 1.2C70.2923 1.2 68.9056 1.6 67.4656 2.4C66.0256 3.14666 64.6123 4.10666 63.2256 5.28C61.8923 6.45333 60.6656 7.65333 59.5456 8.88C58.479 10.0533 57.6523 11.0667 57.0656 11.92L54.9056 14.96C56.4523 16.0267 57.759 17.2533 58.8256 18.64C59.039 18.9067 59.1456 19.28 59.1456 19.76C59.1456 20.08 59.0923 20.24 58.9856 20.24C58.9323 20.24 58.8523 20.16 58.7456 20C57.519 18.4533 55.999 17.12 54.1856 16C52.7456 18.1333 51.279 20.3467 49.7856 22.64C48.2923 24.88 46.719 27.12 45.0656 29.36ZM39.3856 29.6C40.9323 27.7333 42.639 25.4133 44.5056 22.64C46.3723 19.8667 48.4256 17.0933 50.6656 14.32C47.4656 13.0933 43.9456 12.48 40.1056 12.48C38.9323 12.48 37.599 12.6933 36.1056 13.12C34.6656 13.4933 33.279 14.08 31.9456 14.88C30.6656 15.6267 29.599 16.56 28.7456 17.68C27.8923 18.8 27.4656 20.1067 27.4656 21.6C27.4656 23.3067 28.1056 24.7467 29.3856 25.92C30.6656 27.0933 32.239 27.9733 34.1056 28.56C35.9723 29.1467 37.7323 29.4933 39.3856 29.6ZM10.6656 50.08C13.0656 50.08 15.359 49.6533 17.5456 48.8C19.7323 48 21.839 46.9067 23.8656 45.52C21.0923 44.4 18.399 43.4667 15.7856 42.72C13.2256 41.92 10.7723 41.52 8.42563 41.52C6.23896 41.52 4.66563 41.84 3.70563 42.48C2.74563 43.12 2.26563 43.8933 2.26563 44.8C2.26563 45.9733 3.03896 47.1467 4.58563 48.32C6.13229 49.4933 8.15896 50.08 10.6656 50.08ZM74.9163 48C73.6363 48 72.7296 47.7067 72.1962 47.12C71.6629 46.5333 71.3962 45.7867 71.3962 44.88C71.3962 43.9733 71.6096 42.9867 72.0362 41.92C72.4096 40.8 72.8896 39.7067 73.4763 38.64C74.4896 36.9333 75.6363 35.2267 76.9163 33.52C78.2496 31.76 79.5829 30.1333 80.9163 28.64C82.3029 27.1467 83.5296 25.8667 84.5963 24.8C85.6096 23.7867 86.6496 23.04 87.7163 22.56C88.7829 22.08 89.6896 21.76 90.4363 21.6C91.2363 21.3867 91.6363 21.28 91.6363 21.28C90.4629 22.6133 88.8629 24.5067 86.8363 26.96C84.8629 29.4133 82.8629 32.0267 80.8363 34.8C80.6229 35.0667 80.2229 35.6267 79.6363 36.48C79.1029 37.3333 78.5163 38.2933 77.8763 39.36C77.2363 40.3733 76.6763 41.3867 76.1963 42.4C75.7696 43.36 75.5563 44.1333 75.5563 44.72C75.5563 45.3067 75.8763 45.5733 76.5163 45.52C77.2096 45.4667 78.1163 44.96 79.2363 44C80.3563 43.04 81.5563 41.8667 82.8363 40.48C84.1163 39.0933 85.3163 37.7333 86.4363 36.4C87.6096 35.0133 88.5696 33.8667 89.3163 32.96C89.9029 32.2667 90.6229 31.4133 91.4763 30.4C92.3296 29.3333 93.2096 28.24 94.1163 27.12C95.0229 26 95.8496 25.0133 96.5963 24.16C97.4496 23.2 98.3563 22.5333 99.3163 22.16C100.276 21.7333 101.103 21.4933 101.796 21.44C102.543 21.3333 102.916 21.28 102.916 21.28C102.49 21.8133 101.636 22.8533 100.356 24.4C99.1296 25.9467 97.7429 27.7867 96.1963 29.92C94.6496 32 93.1829 34.1867 91.7963 36.48C90.4096 38.72 89.3429 40.8533 88.5963 42.88C88.2229 43.7867 88.0363 44.5333 88.0363 45.12C88.0363 45.6533 88.1696 46.0267 88.4363 46.24C88.7029 46.4 88.9963 46.48 89.3163 46.48C90.0629 46.48 90.8896 46.16 91.7963 45.52C92.7563 44.88 93.6629 44.1333 94.5163 43.28C95.4229 42.3733 96.2229 41.52 96.9163 40.72C97.6096 39.92 98.0629 39.3867 98.2763 39.12C98.4896 39.12 98.5963 39.28 98.5963 39.6C98.5963 40.08 98.4896 40.4533 98.2763 40.72C97.4763 41.68 96.4896 42.72 95.3163 43.84C94.1963 44.96 92.9963 45.9467 91.7163 46.8C90.4896 47.6 89.2629 48 88.0363 48C86.7029 48 85.7696 47.68 85.2363 47.04C84.7029 46.4 84.4363 45.6 84.4363 44.64C84.4363 43.7333 84.6229 42.7467 84.9963 41.68C85.3696 40.56 85.8229 39.52 86.3563 38.56C85.7163 39.2 84.9429 40.0533 84.0363 41.12C83.1829 42.1333 82.2229 43.1733 81.1563 44.24C80.0896 45.3067 79.0229 46.2133 77.9563 46.96C76.8896 47.6533 75.8763 48 74.9163 48ZM110.953 48.08C109.833 48.08 109.033 47.7867 108.553 47.2C108.073 46.56 107.833 45.76 107.833 44.8C107.833 43.36 108.339 41.7333 109.353 39.92C110.366 38.0533 111.673 36.1067 113.273 34.08C114.926 32.0533 116.633 30.0533 118.393 28.08C120.206 26.1067 121.913 24.2933 123.513 22.64C122.713 22.64 121.833 22.8533 120.873 23.28C119.966 23.7067 119.033 24.2133 118.073 24.8C116.633 25.76 115.059 27.04 113.353 28.64C111.646 30.24 109.939 31.9467 108.233 33.76C106.526 35.5733 104.899 37.36 103.353 39.12C102.126 40.56 101.139 41.76 100.393 42.72C99.6992 43.68 99.0858 44.56 98.5525 45.36C98.0725 46.1067 97.5392 46.96 96.9525 47.92C96.0992 47.92 95.6725 47.4133 95.6725 46.4C95.6725 45.3333 96.0192 44.0533 96.7125 42.56C97.3525 41.0667 97.9125 39.8933 98.3925 39.04C99.7792 36.6933 101.353 34.24 103.113 31.68C104.926 29.0667 106.606 26.7733 108.153 24.8C108.953 23.7333 109.806 22.96 110.713 22.48C111.619 21.9467 112.393 21.6267 113.033 21.52C113.673 21.36 113.993 21.28 113.993 21.28C113.673 21.76 113.006 22.7733 111.993 24.32C110.979 25.8667 109.806 27.68 108.473 29.76C107.139 31.84 105.779 33.9467 104.393 36.08C106.579 33.5733 108.926 31.1467 111.433 28.8C113.939 26.4 116.339 24.4533 118.633 22.96C119.326 22.48 120.046 22.08 120.793 21.76C121.539 21.44 122.313 21.28 123.113 21.28C124.553 21.28 125.273 21.84 125.273 22.96C125.273 23.8133 124.766 24.8267 123.753 26C122.526 27.44 121.193 29.04 119.753 30.8C118.313 32.56 116.926 34.3467 115.593 36.16C114.313 37.9733 113.246 39.6533 112.393 41.2C111.593 42.7467 111.193 44 111.193 44.96C111.193 45.4933 111.326 45.8933 111.593 46.16C111.913 46.3733 112.179 46.48 112.393 46.48C113.193 46.48 114.073 46.16 115.033 45.52C116.046 44.88 117.006 44.1333 117.913 43.28C118.873 42.3733 119.699 41.52 120.393 40.72C121.139 39.92 121.619 39.3867 121.832 39.12C122.046 39.12 122.153 39.28 122.153 39.6C122.153 40.08 122.046 40.4533 121.832 40.72C121.086 41.52 120.099 42.5067 118.872 43.68C117.646 44.8533 116.339 45.8933 114.953 46.8C113.566 47.6533 112.233 48.08 110.953 48.08ZM127.908 48.56C125.455 48.56 123.721 48.0267 122.708 46.96C121.695 45.8933 121.188 44.4533 121.188 42.64C121.188 40.88 121.668 39.04 122.628 37.12C123.641 35.1467 124.895 33.28 126.388 31.52C127.295 30.4533 128.415 29.3333 129.748 28.16C131.081 26.9867 132.521 25.8933 134.068 24.88C135.615 23.8133 137.135 22.96 138.628 22.32C140.175 21.6267 141.535 21.28 142.708 21.28C143.348 21.28 143.935 21.44 144.468 21.76C145.001 22.0267 145.268 22.64 145.268 23.6C145.268 24.9333 144.628 26.2133 143.348 27.44C142.068 28.6133 140.628 29.7067 139.028 30.72C137.215 31.8933 135.321 32.88 133.348 33.68C131.375 34.48 129.668 35.0933 128.228 35.52C127.428 36.8 126.788 38.1067 126.308 39.44C125.828 40.7733 125.588 42.08 125.588 43.36C125.588 44.7467 125.908 45.7067 126.548 46.24C127.241 46.72 128.041 46.96 128.948 46.96C130.601 46.96 132.095 46.5867 133.428 45.84C134.815 45.04 136.095 44.0267 137.268 42.8C138.441 41.5733 139.561 40.3467 140.628 39.12C140.841 39.12 140.948 39.28 140.948 39.6C140.948 40.08 140.841 40.4533 140.628 40.72C139.561 41.9467 138.388 43.1733 137.108 44.4C135.881 45.6267 134.521 46.64 133.028 47.44C131.535 48.1867 129.828 48.56 127.908 48.56ZM129.188 34.4C130.575 33.92 132.201 33.2533 134.068 32.4C135.988 31.5467 137.668 30.6133 139.108 29.6C139.428 29.3867 139.988 28.96 140.788 28.32C141.588 27.6267 142.335 26.88 143.028 26.08C143.721 25.2267 144.068 24.48 144.068 23.84C144.068 22.9867 143.641 22.56 142.788 22.56C141.881 22.56 140.841 22.96 139.668 23.76C138.548 24.56 137.641 25.2533 136.948 25.84C135.668 27.0133 134.335 28.32 132.948 29.76C131.561 31.2 130.308 32.7467 129.188 34.4ZM142.896 48.24C140.23 48.24 138.896 47.0133 138.896 44.56C138.896 43.76 139.083 42.8267 139.456 41.76C139.83 40.6933 140.523 39.28 141.536 37.52C142.923 35.12 144.87 32.2933 147.376 29.04C149.936 25.7867 152.656 22.6133 155.536 19.52C158.043 16.6933 160.763 14.1067 163.696 11.76C166.683 9.36 169.776 7.70666 172.976 6.8C173.456 6.64 174.016 6.50667 174.656 6.4C175.296 6.29333 175.963 6.24 176.656 6.24C177.936 6.24 179.03 6.42666 179.936 6.8C180.363 7.01333 180.79 7.30666 181.216 7.68C181.643 8 181.936 8.48 182.096 9.12C181.51 8.64 180.843 8.29333 180.096 8.08C179.35 7.81333 178.443 7.68 177.376 7.68C174.603 7.68 171.936 8.58667 169.376 10.4C166.816 12.2133 164.256 14.56 161.696 17.44C159.19 20.2667 156.55 23.28 153.776 26.48C152.71 27.7067 151.536 29.2267 150.256 31.04C148.976 32.8533 147.75 34.6667 146.576 36.48C145.456 38.2933 144.55 39.84 143.856 41.12C143.483 41.7067 143.19 42.3467 142.976 43.04C142.816 43.68 142.736 44.2133 142.736 44.64C142.736 45.92 143.216 46.56 144.176 46.56C145.19 46.56 146.31 46.08 147.536 45.12C148.816 44.16 150.016 43.0933 151.136 41.92C152.31 40.7467 153.19 39.8133 153.776 39.12C153.99 39.12 154.096 39.28 154.096 39.6C154.096 40.08 153.99 40.4533 153.776 40.72C151.643 43.1733 149.67 45.04 147.856 46.32C146.096 47.6 144.443 48.24 142.896 48.24ZM156.021 48.24C153.355 48.24 152.021 47.0133 152.021 44.56C152.021 43.76 152.208 42.8267 152.581 41.76C152.955 40.6933 153.648 39.28 154.661 37.52C156.048 35.12 157.995 32.2933 160.501 29.04C163.061 25.7867 165.781 22.6133 168.661 19.52C171.168 16.6933 173.888 14.1067 176.821 11.76C179.808 9.36 182.901 7.70666 186.101 6.8C186.581 6.64 187.141 6.50667 187.781 6.4C188.421 6.29333 189.088 6.24 189.781 6.24C191.061 6.24 192.155 6.42666 193.061 6.8C193.488 7.01333 193.915 7.30666 194.341 7.68C194.768 8 195.061 8.48 195.221 9.12C194.635 8.64 193.968 8.29333 193.221 8.08C192.475 7.81333 191.568 7.68 190.501 7.68C187.728 7.68 185.061 8.58667 182.501 10.4C179.941 12.2133 177.381 14.56 174.821 17.44C172.315 20.2667 169.675 23.28 166.901 26.48C165.835 27.7067 164.661 29.2267 163.381 31.04C162.101 32.8533 160.875 34.6667 159.701 36.48C158.581 38.2933 157.675 39.84 156.981 41.12C156.608 41.7067 156.315 42.3467 156.101 43.04C155.941 43.68 155.861 44.2133 155.861 44.64C155.861 45.92 156.341 46.56 157.301 46.56C158.315 46.56 159.435 46.08 160.661 45.12C161.941 44.16 163.141 43.0933 164.261 41.92C165.435 40.7467 166.315 39.8133 166.901 39.12C167.115 39.12 167.221 39.28 167.221 39.6C167.221 40.08 167.115 40.4533 166.901 40.72C164.768 43.1733 162.795 45.04 160.981 46.32C159.221 47.6 157.568 48.24 156.021 48.24ZM172.986 48.56C170.533 48.56 168.8 48.0267 167.786 46.96C166.773 45.8933 166.266 44.4533 166.266 42.64C166.266 40.88 166.746 39.04 167.706 37.12C168.72 35.1467 169.973 33.28 171.466 31.52C172.373 30.4533 173.493 29.3333 174.826 28.16C176.16 26.9867 177.6 25.8933 179.146 24.88C180.693 23.8133 182.213 22.96 183.706 22.32C185.253 21.6267 186.613 21.28 187.786 21.28C188.426 21.28 189.013 21.44 189.546 21.76C190.08 22.0267 190.346 22.64 190.346 23.6C190.346 24.9333 189.706 26.2133 188.426 27.44C187.146 28.6133 185.706 29.7067 184.106 30.72C182.293 31.8933 180.4 32.88 178.426 33.68C176.453 34.48 174.746 35.0933 173.306 35.52C172.506 36.8 171.866 38.1067 171.386 39.44C170.906 40.7733 170.666 42.08 170.666 43.36C170.666 44.7467 170.986 45.7067 171.626 46.24C172.32 46.72 173.12 46.96 174.026 46.96C175.68 46.96 177.173 46.5867 178.506 45.84C179.893 45.04 181.173 44.0267 182.346 42.8C183.52 41.5733 184.64 40.3467 185.706 39.12C185.92 39.12 186.026 39.28 186.026 39.6C186.026 40.08 185.92 40.4533 185.706 40.72C184.64 41.9467 183.466 43.1733 182.186 44.4C180.96 45.6267 179.6 46.64 178.106 47.44C176.613 48.1867 174.906 48.56 172.986 48.56ZM174.266 34.4C175.653 33.92 177.28 33.2533 179.146 32.4C181.066 31.5467 182.746 30.6133 184.186 29.6C184.506 29.3867 185.066 28.96 185.866 28.32C186.666 27.6267 187.413 26.88 188.106 26.08C188.8 25.2267 189.146 24.48 189.146 23.84C189.146 22.9867 188.72 22.56 187.866 22.56C186.96 22.56 185.92 22.96 184.746 23.76C183.626 24.56 182.72 25.2533 182.026 25.84C180.746 27.0133 179.413 28.32 178.026 29.76C176.64 31.2 175.386 32.7467 174.266 34.4Z" fill="black"/>
</svg>
