<svg width="20" height="20" viewBox="0 0 20 20" fill="none" xmlns="http://www.w3.org/2000/svg">
<path d="M17.543 8.57158H2.45725C2.24299 8.56724 2.0305 8.61116 1.83552 8.70009C1.64054 8.78902 1.46806 8.92068 1.33087 9.08531C1.19367 9.24994 1.09528 9.44333 1.04297 9.65115C0.990658 9.85897 0.985774 10.0759 1.02868 10.2859L2.60011 18.143C2.66689 18.4705 2.84643 18.7643 3.10745 18.9731C3.36848 19.1819 3.69447 19.2926 4.02868 19.2859H15.9715C16.3057 19.2926 16.6317 19.1819 16.8928 18.9731C17.1538 18.7643 17.3333 18.4705 17.4001 18.143L18.9715 10.2859C19.0144 10.0759 19.0096 9.85897 18.9572 9.65115C18.9049 9.44333 18.8065 9.24994 18.6693 9.08531C18.5321 8.92068 18.3597 8.78902 18.1647 8.70009C17.9697 8.61116 17.7572 8.56724 17.543 8.57158Z" stroke="#000001" stroke-linecap="round" stroke-linejoin="round"/>
<path d="M12.8572 3.57153L15.7143 8.57153" stroke="#000001" stroke-linecap="round" stroke-linejoin="round"/>
<path d="M4.28589 8.57153L7.14303 3.57153" stroke="#000001" stroke-linecap="round" stroke-linejoin="round"/>
</svg>
